{
	"asset":{
		"generator":"Khronos glTF Blender I/O v4.1.63",
		"version":"2.0"
	},
	"scene":0,
	"scenes":[
		{
			"name":"Scene",
			"nodes":[
				0
			]
		}
	],
	"nodes":[
		{
			"mesh":0,
			"name":"GP_Layer.002"
		}
	],
	"materials":[
		{
			"doubleSided":true,
			"name":"Material.002",
			"pbrMetallicRoughness":{
				"baseColorFactor":[
					0.4793170988559723,
					0.35153284668922424,
					0.5088815093040466,
					1
				],
				"metallicFactor":0,
				"roughnessFactor":0.5
			}
		}
	],
	"meshes":[
		{
			"name":"GP_Layer.003",
			"primitives":[
				{
					"attributes":{
						"POSITION":0,
						"NORMAL":1,
						"TEXCOORD_0":2
					},
					"indices":3,
					"material":0
				}
			]
		}
	],
	"accessors":[
		{
			"bufferView":0,
			"componentType":5126,
			"count":713716,
			"max":[
				1.0041855573654175,
				1.0069884061813354,
				1.0027345418930054
			],
			"min":[
				-1.0051162242889404,
				-0.9964997172355652,
				-0.9875134229660034
			],
			"type":"VEC3"
		},
		{
			"bufferView":1,
			"componentType":5126,
			"count":713716,
			"type":"VEC3"
		},
		{
			"bufferView":2,
			"componentType":5126,
			"count":713716,
			"type":"VEC2"
		},
		{
			"bufferView":3,
			"componentType":5125,
			"count":1073856,
			"type":"SCALAR"
		}
	],
	"bufferViews":[
		{
			"buffer":0,
			"byteLength":8564592,
			"byteOffset":0,
			"target":34962
		},
		{
			"buffer":0,
			"byteLength":8564592,
			"byteOffset":8564592,
			"target":34962
		},
		{
			"buffer":0,
			"byteLength":5709728,
			"byteOffset":17129184,
			"target":34962
		},
		{
			"buffer":0,
			"byteLength":4295424,
			"byteOffset":22838912,
			"target":34963
		}
	],
	"buffers":[
		{
			"byteLength":27134336,
			"uri":"obj1.bin"
		}
	]
}
