{
	"asset":{
		"generator":"Khronos glTF Blender I/O v4.1.63",
		"version":"2.0"
	},
	"scene":0,
	"scenes":[
		{
			"name":"Scene",
			"nodes":[
				0
			]
		}
	],
	"nodes":[
		{
			"mesh":0,
			"name":"GP_Layer.004"
		}
	],
	"materials":[
		{
			"doubleSided":true,
			"name":"Material.002",
			"pbrMetallicRoughness":{
				"baseColorFactor":[
					0.4793170988559723,
					0.35153284668922424,
					0.5088815093040466,
					1
				],
				"metallicFactor":0,
				"roughnessFactor":0.5
			}
		}
	],
	"meshes":[
		{
			"name":"GP_Layer.005",
			"primitives":[
				{
					"attributes":{
						"POSITION":0,
						"NORMAL":1,
						"TEXCOORD_0":2
					},
					"indices":3,
					"material":0
				}
			]
		}
	],
	"accessors":[
		{
			"bufferView":0,
			"componentType":5126,
			"count":1198224,
			"max":[
				0.9780373573303223,
				1.0067825317382812,
				0.9819786548614502
			],
			"min":[
				-1.0068918466567993,
				-1.0049347877502441,
				-0.9895690083503723
			],
			"type":"VEC3"
		},
		{
			"bufferView":1,
			"componentType":5126,
			"count":1198224,
			"type":"VEC3"
		},
		{
			"bufferView":2,
			"componentType":5126,
			"count":1198224,
			"type":"VEC2"
		},
		{
			"bufferView":3,
			"componentType":5125,
			"count":1807632,
			"type":"SCALAR"
		}
	],
	"bufferViews":[
		{
			"buffer":0,
			"byteLength":14378688,
			"byteOffset":0,
			"target":34962
		},
		{
			"buffer":0,
			"byteLength":14378688,
			"byteOffset":14378688,
			"target":34962
		},
		{
			"buffer":0,
			"byteLength":9585792,
			"byteOffset":28757376,
			"target":34962
		},
		{
			"buffer":0,
			"byteLength":7230528,
			"byteOffset":38343168,
			"target":34963
		}
	],
	"buffers":[
		{
			"byteLength":45573696,
			"uri":"obj1.bin"
		}
	]
}
