{
	"asset":{
		"generator":"Khronos glTF Blender I/O v4.1.63",
		"version":"2.0"
	},
	"scene":0,
	"scenes":[
		{
			"name":"Scene",
			"nodes":[
				0
			]
		}
	],
	"nodes":[
		{
			"mesh":0,
			"name":"GP_Layer.003"
		}
	],
	"materials":[
		{
			"doubleSided":true,
			"name":"Material.002",
			"pbrMetallicRoughness":{
				"baseColorFactor":[
					0.4793170988559723,
					0.35153284668922424,
					0.5088815093040466,
					1
				],
				"metallicFactor":0,
				"roughnessFactor":0.5
			}
		}
	],
	"meshes":[
		{
			"name":"GP_Layer.004",
			"primitives":[
				{
					"attributes":{
						"POSITION":0,
						"NORMAL":1,
						"TEXCOORD_0":2
					},
					"indices":3,
					"material":0
				}
			]
		}
	],
	"accessors":[
		{
			"bufferView":0,
			"componentType":5126,
			"count":425702,
			"max":[
				1.0113084316253662,
				1.0109179019927979,
				1.0114891529083252
			],
			"min":[
				-1.006230354309082,
				-1.0098762512207031,
				-1.007995843887329
			],
			"type":"VEC3"
		},
		{
			"bufferView":1,
			"componentType":5126,
			"count":425702,
			"type":"VEC3"
		},
		{
			"bufferView":2,
			"componentType":5126,
			"count":425702,
			"type":"VEC2"
		},
		{
			"bufferView":3,
			"componentType":5125,
			"count":644184,
			"type":"SCALAR"
		}
	],
	"bufferViews":[
		{
			"buffer":0,
			"byteLength":5108424,
			"byteOffset":0,
			"target":34962
		},
		{
			"buffer":0,
			"byteLength":5108424,
			"byteOffset":5108424,
			"target":34962
		},
		{
			"buffer":0,
			"byteLength":3405616,
			"byteOffset":10216848,
			"target":34962
		},
		{
			"buffer":0,
			"byteLength":2576736,
			"byteOffset":13622464,
			"target":34963
		}
	],
	"buffers":[
		{
			"byteLength":16199200,
			"uri":"obj1.bin"
		}
	]
}
