{
	"asset":{
		"generator":"Khronos glTF Blender I/O v4.1.63",
		"version":"2.0"
	},
	"scene":0,
	"scenes":[
		{
			"name":"Scene",
			"nodes":[
				0
			]
		}
	],
	"nodes":[
		{
			"mesh":0,
			"name":"GP_Layer.005"
		}
	],
	"materials":[
		{
			"doubleSided":true,
			"name":"Material.002",
			"pbrMetallicRoughness":{
				"baseColorFactor":[
					0.4793170988559723,
					0.35153284668922424,
					0.5088815093040466,
					1
				],
				"metallicFactor":0,
				"roughnessFactor":0.5
			}
		}
	],
	"meshes":[
		{
			"name":"GP_Layer.006",
			"primitives":[
				{
					"attributes":{
						"POSITION":0,
						"NORMAL":1,
						"TEXCOORD_0":2
					},
					"indices":3,
					"material":0
				}
			]
		}
	],
	"accessors":[
		{
			"bufferView":0,
			"componentType":5126,
			"count":1583286,
			"max":[
				1.0061357021331787,
				1.007564663887024,
				1.0003787279129028
			],
			"min":[
				-1.0079530477523804,
				-1.0056334733963013,
				-1.006992220878601
			],
			"type":"VEC3"
		},
		{
			"bufferView":1,
			"componentType":5126,
			"count":1583286,
			"type":"VEC3"
		},
		{
			"bufferView":2,
			"componentType":5126,
			"count":1583286,
			"type":"VEC2"
		},
		{
			"bufferView":3,
			"componentType":5125,
			"count":2452296,
			"type":"SCALAR"
		}
	],
	"bufferViews":[
		{
			"buffer":0,
			"byteLength":18999432,
			"byteOffset":0,
			"target":34962
		},
		{
			"buffer":0,
			"byteLength":18999432,
			"byteOffset":18999432,
			"target":34962
		},
		{
			"buffer":0,
			"byteLength":12666288,
			"byteOffset":37998864,
			"target":34962
		},
		{
			"buffer":0,
			"byteLength":9809184,
			"byteOffset":50665152,
			"target":34963
		}
	],
	"buffers":[
		{
			"byteLength":60474336,
			"uri":"obj1.bin"
		}
	]
}
