{
	"asset":{
		"generator":"Khronos glTF Blender I/O v4.1.63",
		"version":"2.0"
	},
	"scene":0,
	"scenes":[
		{
			"name":"Scene",
			"nodes":[
				0
			]
		}
	],
	"nodes":[
		{
			"mesh":0,
			"name":"GP_Layer.001"
		}
	],
	"materials":[
		{
			"doubleSided":true,
			"name":"Material.002",
			"pbrMetallicRoughness":{
				"baseColorFactor":[
					0.4793170988559723,
					0.35153284668922424,
					0.5088815093040466,
					1
				],
				"metallicFactor":0,
				"roughnessFactor":0.5
			}
		}
	],
	"meshes":[
		{
			"name":"GP_Layer.002",
			"primitives":[
				{
					"attributes":{
						"POSITION":0,
						"NORMAL":1,
						"TEXCOORD_0":2
					},
					"indices":3,
					"material":0
				}
			]
		}
	],
	"accessors":[
		{
			"bufferView":0,
			"componentType":5126,
			"count":243240,
			"max":[
				1.003330111503601,
				1.0000144243240356,
				1.0089176893234253
			],
			"min":[
				-0.9891493916511536,
				-0.9971259236335754,
				-0.913790225982666
			],
			"type":"VEC3"
		},
		{
			"bufferView":1,
			"componentType":5126,
			"count":243240,
			"type":"VEC3"
		},
		{
			"bufferView":2,
			"componentType":5126,
			"count":243240,
			"type":"VEC2"
		},
		{
			"bufferView":3,
			"componentType":5125,
			"count":364944,
			"type":"SCALAR"
		}
	],
	"bufferViews":[
		{
			"buffer":0,
			"byteLength":2918880,
			"byteOffset":0,
			"target":34962
		},
		{
			"buffer":0,
			"byteLength":2918880,
			"byteOffset":2918880,
			"target":34962
		},
		{
			"buffer":0,
			"byteLength":1945920,
			"byteOffset":5837760,
			"target":34962
		},
		{
			"buffer":0,
			"byteLength":1459776,
			"byteOffset":7783680,
			"target":34963
		}
	],
	"buffers":[
		{
			"byteLength":9243456,
			"uri":"obj1.bin"
		}
	]
}
