{
	"asset":{
		"generator":"Khronos glTF Blender I/O v4.1.63",
		"version":"2.0"
	},
	"scene":0,
	"scenes":[
		{
			"name":"Scene",
			"nodes":[
				0
			]
		}
	],
	"nodes":[
		{
			"mesh":0,
			"name":"GP_Layer"
		}
	],
	"materials":[
		{
			"doubleSided":true,
			"name":"Material.002",
			"pbrMetallicRoughness":{
				"baseColorFactor":[
					0.4793170988559723,
					0.35153284668922424,
					0.5088815093040466,
					1
				],
				"metallicFactor":0,
				"roughnessFactor":0.5
			}
		}
	],
	"meshes":[
		{
			"name":"GP_Layer.001",
			"primitives":[
				{
					"attributes":{
						"POSITION":0,
						"NORMAL":1,
						"TEXCOORD_0":2
					},
					"indices":3,
					"material":0
				}
			]
		}
	],
	"accessors":[
		{
			"bufferView":0,
			"componentType":5126,
			"count":165488,
			"max":[
				0.9665355682373047,
				1.0069526433944702,
				0.9433929920196533
			],
			"min":[
				-0.9916702508926392,
				-1.0044437646865845,
				-1.0076454877853394
			],
			"type":"VEC3"
		},
		{
			"bufferView":1,
			"componentType":5126,
			"count":165488,
			"type":"VEC3"
		},
		{
			"bufferView":2,
			"componentType":5126,
			"count":165488,
			"type":"VEC2"
		},
		{
			"bufferView":3,
			"componentType":5125,
			"count":248256,
			"type":"SCALAR"
		}
	],
	"bufferViews":[
		{
			"buffer":0,
			"byteLength":1985856,
			"byteOffset":0,
			"target":34962
		},
		{
			"buffer":0,
			"byteLength":1985856,
			"byteOffset":1985856,
			"target":34962
		},
		{
			"buffer":0,
			"byteLength":1323904,
			"byteOffset":3971712,
			"target":34962
		},
		{
			"buffer":0,
			"byteLength":993024,
			"byteOffset":5295616,
			"target":34963
		}
	],
	"buffers":[
		{
			"byteLength":6288640,
			"uri":"obj1.bin"
		}
	]
}
